<?xml version="1.0" encoding="UTF-8"?>
<svg id="Layer_2" xmlns="http://www.w3.org/2000/svg" viewBox="0 0 643.1 317.83">
    <defs>
        <style>
            .cls-1{fill:#dd3327;}.cls-2{fill:#3f7c3d;}.cls-3{fill:#2e5c2e;}.cls-6{fill:#d82e28;}</style>
    </defs>
    <g id="Layer_1-2">
        <path class="cls-1"
            stroke="#dd3327"
            d="M445.37,280.87c-42.9-6.63-83.23-20.15-118.08-46.71-13.3-10.14-24.97-22.4-36.19-32.61,11.62-17.48,4.03-34.66,6.83-51.54h-36c-2.61-4.49-4.96-8.55-8.76-15.09,23.91,0,45.47-.09,67.02.03,16.47.09,32.93.59,49.39.61,16.9.02,32.38,4.94,46.61,13.55,24.2,14.63,48.06,29.84,72.25,44.5,4.78,2.9,10.24,5.46,15.68,6.38,29.21,4.9,58.6,8.74,87.74,14.03,8.97,1.63,17.34,6.54,25.98,10.01l-.59,2.99h-18.19c1.24,10.59,6.39,16.79,15.4,18.67,3.47.72,7.13,1.47,10.59,1.11,14.21-1.48,15.26,1.33,17.46,15.81,2.91,19.2-4.43,40.6-32.2,39.52-9.72-.38-19.47-.06-29.78-.06,3.79-18.57,2.64-34.95-11.09-48.56-24.51-24.29-66.22-13.53-75.55,19.67-.95,3.39-1.91,6.77-2.87,10.15-5.5.83-10.99,1.66-16.49,2.49-9.72-1.65-19.44-3.29-29.16-4.94ZM312.83,197.01h148.75c-13.14-8.78-24.61-15.31-34.8-23.44-34.18-27.29-73.76-25.1-113.95-22.66v46.1Z" />
        <path class="cls-6"
            stroke="#d82e28"
            d="M474.49,285.67c5.49-.83,10.98-1.66,16.47-2.49.99,5.64,1.98,11.28,3.16,18.05-4.36.27-8.12.69-11.89.7-55.55.04-111.1.2-166.64-.06-27.1-.13-53.53-4.89-79.56-12.51-5.56-1.63-8.04-3.81-9.19-9.28-5.02-23.83-19.98-38.55-39.69-39.59-24.77-1.31-40.73,9.98-50.22,36.8-6.31,0-13.28-.01-20.24,0-20.44.04-40.88.19-61.32.05-3.89-.03-8.16-.42-11.52-2.11-2.12-1.06-4.12-4.97-3.88-7.36.24-2.34,3-5.38,5.37-6.32,3.14-1.25,6.97-1,10.5-1.01,19.11-.03,38.22.09,57.32.07,4.34,0,8.68-.38,13.89-.62-.21-3.4.65-6.96-.68-8.22-9.2-8.73-15.38-20.73-32.02-19.69-26.12,1.64-52.41.43-78.63.41-3.11,0-6.78.92-9.18-.41C3.64,230.44,0,226.89,0,224.17c0-2.66,3.85-7.13,6.58-7.62,6.46-1.16,13.26-.45,19.93-.46,22.64-.01,45.27,0,69.09,0-1.06-5.6-1.98-10.53-2.91-15.47,3.11-8.08,5.46-16.58,9.52-24.15,5.98-11.16,15.18-17.39,28.9-16.26,5.82.48,11.87-1.88,17.81-2.95,2.03,3.42,3.48,7.39,6.17,10.15,15.41,15.81,30.33,32.23,46.9,46.75,25.86,22.65,56.1,38.26,88.16,50.55,47.3,18.13,96.11,26.49,146.73,23.7,3.81-.21,7.56-1.4,11.34-2.14,8.76-.2,17.52-.41,26.27-.61Z" />
        <path class="cls-1"
            stroke="#dd3327"
            d="M448.22,286.28c-3.78.74-7.53,1.93-11.34,2.14-50.63,2.79-99.43-5.57-146.73-23.7-32.06-12.29-62.3-27.89-88.16-50.55-16.57-14.52-31.49-30.94-46.9-46.75-2.69-2.76-4.15-6.74-6.17-10.15.09-.69.18-1.37.26-2.06,1.86-5.99,5.32-12,5.23-17.97-.18-11.71,4.84-19.67,14.68-24.26,8.23-3.84,17.26-5.99,25.93-8.88,25.44,5.13,39.3,22.75,50.63,44.52,10.55,20.29,21.77,40.6,35.5,58.78,26.59,35.21,63.78,55.57,105.71,67.12,15.62,4.3,31.99,5.85,48.02,8.65,4.45,1.03,8.9,2.07,13.34,3.1Z" />
        <path class="cls-3"
            stroke="#2e5c2e"
            d="M149.17,155.21c-.08.69-.17,1.37-.26,2.06-5.94,1.07-11.99,3.43-17.81,2.95-13.72-1.13-22.92,5.1-28.9,16.26-4.06,7.57-6.41,16.07-9.52,24.15-14.39-16.07-7.21-42.91,5.93-57.99,2.9-3.33,6.42-6.11,10.06-9.52-7.41-8.66-14.78-16.6-21.39-25.13-16.18-20.85-27.05-43.97-23.45-71.01,1.35-10.11,5.81-20.3,10.92-29.28,5.05-8.89,16.01-9.86,22.99-4.03,5.92,4.94,5.68,12.75-1.18,21.03-10.11,12.19-12.99,25.7-8.76,40.93,6.18,22.23,17.46,40.24,39.93,49.22,4.71,14.75,10.28,29.04,21.45,40.36Z" />
        <path class="cls-6"
            d="M213.46,286.35c-.23,17-14.76,32.25-31.37,31.31-18.43-1.05-31.58-13.52-30.93-32.73.61-17.83,13.63-31.1,31.21-31.15,17.49-.06,31.34,14.45,31.09,32.57Z" />
        <path class="cls-6"
            d="M506.46,286.47c-1.15-18.35,12.63-31.95,30.74-32.59,17.11-.61,31.13,13.55,31.35,30.75.23,17.83-14.16,33.24-31.01,33.21-17.25-.03-30.92-13.81-31.09-31.36Z" />
        <path class="cls-2"
            stroke="#3f7c3d"
            d="M149.17,155.21c-11.16-11.32-16.73-25.62-21.45-40.36,14.65-16.5,32.15-25.14,54.47-18.58,4.64,1.36,8.56,5.16,12.81,7.83-8.67,2.9-17.7,5.05-25.93,8.88-9.84,4.59-14.86,12.55-14.68,24.26.09,5.96-3.37,11.98-5.23,17.97Z" />
        <path class="cls-6"
            d="M42.28,191.83c-9.2.12-14.16-3.64-13.98-9.88.24-7.99,5.61-8.65,11.94-8.67,6.67-.02,12.92.24,12.84,9.03-.07,7.61-6.07,8.68-10.8,9.51Z" />
        <path class="cls-6"
            d="M63.9,239.92c5.38,3.7,6.69,4.81,6.38,7.15-.3,2.27-4.16,4.8-6.93,5.63-1.12.34-5.04-3.57-4.95-5.42.13-2.75.8-3.49,5.51-7.36Z" />
    </g>
</svg>